<svg xmlns="http://www.w3.org/2000/svg" viewBox="0 0 800 400" fill="none">
    <rect width="800" height="400" fill="url(#bg)" />

    <!-- Subtle grid pattern -->
    <g opacity="0.06">
        <line x1="0" y1="50" x2="800" y2="50" stroke="#fff" stroke-width="1" />
        <line x1="0" y1="100" x2="800" y2="100" stroke="#fff" stroke-width="1" />
        <line x1="0" y1="150" x2="800" y2="150" stroke="#fff" stroke-width="1" />
        <line x1="0" y1="200" x2="800" y2="200" stroke="#fff" stroke-width="1" />
        <line x1="0" y1="250" x2="800" y2="250" stroke="#fff" stroke-width="1" />
        <line x1="0" y1="300" x2="800" y2="300" stroke="#fff" stroke-width="1" />
        <line x1="0" y1="350" x2="800" y2="350" stroke="#fff" stroke-width="1" />
        <line x1="100" y1="0" x2="100" y2="400" stroke="#fff" stroke-width="1" />
        <line x1="200" y1="0" x2="200" y2="400" stroke="#fff" stroke-width="1" />
        <line x1="300" y1="0" x2="300" y2="400" stroke="#fff" stroke-width="1" />
        <line x1="400" y1="0" x2="400" y2="400" stroke="#fff" stroke-width="1" />
        <line x1="500" y1="0" x2="500" y2="400" stroke="#fff" stroke-width="1" />
        <line x1="600" y1="0" x2="600" y2="400" stroke="#fff" stroke-width="1" />
        <line x1="700" y1="0" x2="700" y2="400" stroke="#fff" stroke-width="1" />
    </g>

    <!-- Ambient rings -->
    <circle cx="690" cy="82" r="116" fill="rgba(255,255,255,0.045)" />
    <circle cx="112" cy="324" r="82" fill="rgba(255,255,255,0.04)" />

    <!-- Left: talk to Ami (voice bubble) -->
    <g transform="translate(92, 118)" opacity="0.24">
        <path d="M18 0H132A18 18 0 0 1 150 18V96A18 18 0 0 1 132 114H54L30 140V114H18A18 18 0 0 1 0 96V18A18 18 0 0 1 18 0Z"
            stroke="#fff" stroke-width="4" fill="rgba(255,255,255,0.06)" />
        <line x1="40" y1="45" x2="40" y2="69" stroke="#fff" stroke-width="5" stroke-linecap="round" />
        <line x1="58" y1="33" x2="58" y2="81" stroke="#fff" stroke-width="5" stroke-linecap="round" />
        <line x1="76" y1="50" x2="76" y2="64" stroke="#fff" stroke-width="5" stroke-linecap="round" />
        <line x1="94" y1="29" x2="94" y2="85" stroke="#fff" stroke-width="5" stroke-linecap="round" />
        <line x1="112" y1="46" x2="112" y2="68" stroke="#fff" stroke-width="5" stroke-linecap="round" />
    </g>

    <!-- Central: learning Journey path -->
    <g transform="translate(282, 70)">
        <path d="M0 120C40 120 50 40 90 40C130 40 140 120 180 120C220 120 230 40 270 40"
            stroke="rgba(255,255,255,0.4)" stroke-width="3" stroke-linecap="round"
            stroke-dasharray="2 12" fill="none" />
        <g font-family="system-ui, -apple-system, sans-serif" font-size="18" font-weight="700"
            text-anchor="middle" fill="rgba(255,255,255,0.82)">
            <circle cx="0" cy="120" r="20" fill="rgba(255,255,255,0.14)"
                stroke="rgba(255,255,255,0.3)" stroke-width="2" />
            <text x="0" y="127">1</text>
            <circle cx="90" cy="40" r="20" fill="rgba(255,255,255,0.14)"
                stroke="rgba(255,255,255,0.3)" stroke-width="2" />
            <text x="90" y="47">2</text>
            <circle cx="180" cy="120" r="20" fill="rgba(255,255,255,0.14)"
                stroke="rgba(255,255,255,0.3)" stroke-width="2" />
            <text x="180" y="127">3</text>
            <circle cx="270" cy="40" r="22" fill="rgba(255,255,255,0.2)"
                stroke="rgba(255,255,255,0.4)" stroke-width="2" />
            <path d="M261 40L268 47L280 33" stroke="#fff" stroke-width="3"
                stroke-linecap="round" stroke-linejoin="round" fill="none" />
        </g>
    </g>

    <!-- Right: graded feedback card -->
    <g transform="translate(572, 110)" opacity="0.28">
        <rect x="0" y="0" width="132" height="108" rx="14" stroke="#fff" stroke-width="3"
            fill="rgba(255,255,255,0.08)" />
        <circle cx="30" cy="30" r="14" stroke="#fff" stroke-width="3" fill="none" />
        <path d="M23 30L28 35L38 24" stroke="#fff" stroke-width="3" stroke-linecap="round"
            stroke-linejoin="round" fill="none" />
        <path d="M56 25H110" stroke="#fff" stroke-width="4" stroke-linecap="round" />
        <path d="M56 41H94" stroke="#fff" stroke-width="4" stroke-linecap="round" />
        <path d="M20 72H112" stroke="rgba(255,255,255,0.35)" stroke-width="6" stroke-linecap="round" />
        <path d="M20 72H82" stroke="#fff" stroke-width="6" stroke-linecap="round" />
        <path d="M20 90H112" stroke="rgba(255,255,255,0.35)" stroke-width="6" stroke-linecap="round" />
        <path d="M20 90H60" stroke="#fff" stroke-width="6" stroke-linecap="round" />
    </g>

    <!-- Title -->
    <text x="400" y="370" font-family="system-ui, -apple-system, sans-serif" font-size="30"
        font-weight="700" fill="rgba(255,255,255,0.9)" text-anchor="middle" letter-spacing="2">
        AMISTIO</text>

    <defs>
        <linearGradient id="bg" x1="0" y1="0" x2="800" y2="400">
            <stop offset="0%" stop-color="#0f766e" />
            <stop offset="52%" stop-color="#0f172a" />
            <stop offset="100%" stop-color="#334155" />
        </linearGradient>
    </defs>
</svg>