<svg
  xmlns="http://www.w3.org/2000/svg"
  width="800"
  height="400"
  viewBox="0 0 800 400"
  fill="none"
  role="img"
  aria-labelledby="amistio-cover-title amistio-cover-description"
>
  <title id="amistio-cover-title">Amistio visual AI agent builder</title>
  <desc id="amistio-cover-description">
    A visual agent draft becomes an immutable version and then an active automation
    above app actions, approval gates, and shareable runs.
  </desc>

  <defs>
    <linearGradient id="background" x1="48" y1="24" x2="752" y2="376" gradientUnits="userSpaceOnUse">
      <stop stop-color="#172554" />
      <stop offset="0.48" stop-color="#111827" />
      <stop offset="1" stop-color="#134E4A" />
    </linearGradient>
    <radialGradient id="glow" cx="0" cy="0" r="1" gradientTransform="translate(400 185) rotate(90) scale(220 360)" gradientUnits="userSpaceOnUse">
      <stop stop-color="#67E8F9" stop-opacity="0.17" />
      <stop offset="1" stop-color="#67E8F9" stop-opacity="0" />
    </radialGradient>
    <linearGradient id="flow" x1="120" y1="0" x2="680" y2="0" gradientUnits="userSpaceOnUse">
      <stop stop-color="#A5B4FC" />
      <stop offset="0.5" stop-color="#67E8F9" />
      <stop offset="1" stop-color="#5EEAD4" />
    </linearGradient>
    <filter id="shadow" x="-20%" y="-20%" width="140%" height="140%">
      <feDropShadow dx="0" dy="10" stdDeviation="14" flood-color="#020617" flood-opacity="0.34" />
    </filter>
    <pattern id="grid" width="40" height="40" patternUnits="userSpaceOnUse">
      <path d="M40 0H0V40" stroke="#FFFFFF" stroke-opacity="0.045" />
    </pattern>
    <marker id="arrow" viewBox="0 0 8 8" refX="7" refY="4" markerWidth="8" markerHeight="8" orient="auto">
      <path d="M0 0L8 4L0 8Z" fill="#67E8F9" />
    </marker>
  </defs>

  <rect width="800" height="400" fill="url(#background)" />
  <rect width="800" height="400" fill="url(#grid)" />
  <rect width="800" height="400" fill="url(#glow)" />
  <circle cx="92" cy="82" r="112" fill="#818CF8" fill-opacity="0.055" />
  <circle cx="724" cy="326" r="138" fill="#2DD4BF" fill-opacity="0.05" />

  <g font-family="Inter, ui-sans-serif, system-ui, sans-serif">
    <text x="64" y="55" fill="#FFFFFF" fill-opacity="0.92" font-size="25" font-weight="700" letter-spacing="3">
      AMISTIO
    </text>
    <g transform="translate(618 30)">
      <rect width="118" height="30" rx="15" fill="#5EEAD4" fill-opacity="0.1" stroke="#5EEAD4" stroke-opacity="0.4" />
      <circle cx="18" cy="15" r="4" fill="#5EEAD4" />
      <text x="31" y="19" fill="#CCFBF1" font-size="10" font-weight="700" letter-spacing="1.1">
        LIVE TODAY
      </text>
    </g>

    <path d="M250 174H312" stroke="url(#flow)" stroke-width="3" stroke-linecap="round" marker-end="url(#arrow)" />
    <path d="M488 174H550" stroke="url(#flow)" stroke-width="3" stroke-linecap="round" marker-end="url(#arrow)" />

    <g transform="translate(70 105)" filter="url(#shadow)">
      <rect width="180" height="138" rx="18" fill="#0F172A" fill-opacity="0.78" stroke="#A5B4FC" stroke-opacity="0.42" />
      <rect x="18" y="17" width="70" height="22" rx="11" fill="#818CF8" fill-opacity="0.13" />
      <text x="30" y="32" fill="#C7D2FE" font-size="10" font-weight="700" letter-spacing="1.4">MUTABLE</text>
      <text x="18" y="63" fill="#FFFFFF" fill-opacity="0.94" font-size="16" font-weight="650">AgentDraft</text>
      <g transform="translate(20 82)" stroke="#A5B4FC" stroke-width="2">
        <circle cx="12" cy="17" r="7" fill="#A5B4FC" fill-opacity="0.16" />
        <circle cx="62" cy="7" r="7" fill="#A5B4FC" fill-opacity="0.16" />
        <circle cx="62" cy="28" r="7" fill="#A5B4FC" fill-opacity="0.16" />
        <path d="M19 15L55 8M19 19L55 27" stroke-opacity="0.66" />
      </g>
      <path d="M130 86L148 68L156 76L138 94L126 98Z" fill="#A5B4FC" fill-opacity="0.2" stroke="#A5B4FC" stroke-opacity="0.72" />
    </g>

    <g transform="translate(310 87)" filter="url(#shadow)">
      <rect width="180" height="174" rx="20" fill="#0F172A" fill-opacity="0.9" stroke="#67E8F9" stroke-opacity="0.58" />
      <rect x="18" y="17" width="88" height="22" rx="11" fill="#22D3EE" fill-opacity="0.12" />
      <text x="30" y="32" fill="#A5F3FC" font-size="10" font-weight="700" letter-spacing="1.3">IMMUTABLE</text>
      <text x="18" y="63" fill="#FFFFFF" fill-opacity="0.96" font-size="16" font-weight="650">AgentVersion</text>
      <g transform="translate(62 76)">
        <path d="M28 0L53 10V29C53 45 42 56 28 63C14 56 3 45 3 29V10L28 0Z" fill="#22D3EE" fill-opacity="0.12" stroke="#67E8F9" stroke-width="2" />
        <rect x="19" y="25" width="18" height="15" rx="3" stroke="#CFFAFE" stroke-width="2" />
        <path d="M23 25V20C23 13 33 13 33 20V25" stroke="#CFFAFE" stroke-width="2" stroke-linecap="round" />
      </g>
      <rect x="18" y="148" width="144" height="12" rx="6" fill="#FFFFFF" fill-opacity="0.055" />
      <text x="30" y="157" fill="#CFFAFE" fill-opacity="0.72" font-family="ui-monospace, monospace" font-size="8.5">
        sha256:7fc1…a82e
      </text>
    </g>

    <g transform="translate(550 105)" filter="url(#shadow)">
      <rect width="180" height="138" rx="18" fill="#0F172A" fill-opacity="0.78" stroke="#5EEAD4" stroke-opacity="0.45" />
      <rect x="18" y="17" width="83" height="22" rx="11" fill="#2DD4BF" fill-opacity="0.12" />
      <text x="30" y="32" fill="#99F6E4" font-size="10" font-weight="700" letter-spacing="1.3">ACTIVATION</text>
      <text x="18" y="63" fill="#FFFFFF" fill-opacity="0.94" font-size="16" font-weight="650">Active version</text>
      <g transform="translate(19 79)">
        <rect width="42" height="32" rx="8" fill="#2DD4BF" fill-opacity="0.1" stroke="#5EEAD4" stroke-opacity="0.62" />
        <rect x="50" width="42" height="32" rx="8" fill="#2DD4BF" fill-opacity="0.1" stroke="#5EEAD4" stroke-opacity="0.62" />
        <rect x="100" width="42" height="32" rx="8" fill="#2DD4BF" fill-opacity="0.1" stroke="#5EEAD4" stroke-opacity="0.62" />
        <circle cx="21" cy="16" r="4" fill="#5EEAD4" />
        <circle cx="71" cy="16" r="4" fill="#5EEAD4" fill-opacity="0.72" />
        <circle cx="121" cy="16" r="4" fill="#5EEAD4" fill-opacity="0.44" />
      </g>
    </g>

    <g transform="translate(84 286)">
      <rect width="632" height="70" rx="18" fill="#020617" fill-opacity="0.3" stroke="#FFFFFF" stroke-opacity="0.1" />
      <g transform="translate(18 15)">
        <path d="M18 0L33 6V18C33 28 27 35 18 39C9 35 3 28 3 18V6L18 0Z" fill="#67E8F9" fill-opacity="0.12" stroke="#67E8F9" stroke-opacity="0.7" />
        <path d="M12 19L16 23L25 14" stroke="#CFFAFE" stroke-width="2" stroke-linecap="round" stroke-linejoin="round" />
      </g>
      <text x="68" y="29" fill="#E0F2FE" font-size="11" font-weight="700" letter-spacing="1.5">
        BUILD VISUALLY
      </text>
      <text x="68" y="48" fill="#FFFFFF" fill-opacity="0.54" font-size="10">
        TEMPLATES · AI · APP ACTIONS · APPROVALS
      </text>
      <path d="M376 14V56" stroke="#FFFFFF" stroke-opacity="0.1" />
      <text x="398" y="29" fill="#CCFBF1" font-size="11" font-weight="700" letter-spacing="1.5">
        RUN WITH CONTROL
      </text>
      <text x="398" y="48" fill="#FFFFFF" fill-opacity="0.54" font-size="10">
        VERSIONS · WEBHOOKS · SCHEDULES · SHARE PAGES
      </text>
    </g>
  </g>
</svg>
