<svg viewBox="0 0 1200 630" xmlns="http://www.w3.org/2000/svg">
  <rect x="0" y="0" width="1200" height="630" fill="#0a0a0f" />

  <g transform="translate(600, 100) scale(6.2) translate(-12, -1)">
    <!-- Rays -->
    <g stroke="hsl(38, 85%, 55%)" stroke-width="1.6" stroke-linecap="round" opacity="0.85">
      <line x1="12" y1="0.4" x2="12" y2="-1.6" />
      <line x1="5" y1="4" x2="3.5" y2="2.5" />
      <line x1="19" y1="4" x2="20.5" y2="2.5" />
      <line x1="2.2" y1="9" x2="0.2" y2="9" />
      <line x1="21.8" y1="9" x2="23.8" y2="9" />
    </g>

    <!-- Bulb body -->
    <path
      d="M12 2C8.13 2 5 5.13 5 9c0 2.61 1.43 4.88 3.5 6.13V17.5c0 .28.22.5.5.5h6c.28 0 .5-.22.5-.5v-2.37C17.57 13.88 19 11.61 19 9c0-3.87-3.13-7-7-7Z"
      fill="#fafafa"
    />

    <!-- Base lines -->
    <line x1="9" y1="20" x2="15" y2="20" stroke="#fafafa" stroke-width="2.1" stroke-linecap="round" />
    <line x1="10" y1="23" x2="14" y2="23" stroke="#fafafa" stroke-width="2.1" stroke-linecap="round" />

    <!-- Inner glow -->
    <circle cx="12" cy="9" r="2.9" fill="hsl(38, 85%, 55%)" />
  </g>

  <text x="600" y="400" text-anchor="middle" font-family="Helvetica, Arial, sans-serif" font-size="64" font-weight="700" fill="#fafafa">Lamplit Labs</text>
  <text x="600" y="450" text-anchor="middle" font-family="Helvetica, Arial, sans-serif" font-size="26" fill="#a1a1aa">Illuminating ideas into software</text>
  <text x="600" y="565" text-anchor="middle" font-family="Helvetica, Arial, sans-serif" font-size="20" fill="#71717a">lamplitlabs.com</text>
</svg>
